<?xml version="1.0" encoding="UTF-8" standalone="no"?>
<!DOCTYPE svg PUBLIC "-//W3C//DTD SVG 1.1//EN" "http://www.w3.org/Graphics/SVG/1.1/DTD/svg11.dtd">
<svg width="100%" height="100%" viewBox="0 0 517 177" version="1.1" xmlns="http://www.w3.org/2000/svg" xmlns:xlink="http://www.w3.org/1999/xlink" xml:space="preserve" xmlns:serif="http://www.serif.com/" style="fill-rule:evenodd;clip-rule:evenodd;stroke-linejoin:round;stroke-miterlimit:2;">
    <g transform="matrix(1,0,0,1,0.027,-0.00418875)">
        <g>
            <path d="M42.28,130.41L41.9,130.44C41.53,130.49 41.03,130.44 40.4,130.3C39.77,130.16 39.18,129.94 38.63,129.65C37.44,129.1 36.3,128.42 35.22,127.62C33.04,125.99 31,124.18 29.09,122.18C26.08,119.04 23.26,115.71 20.62,112.2C28.08,113.53 35.55,113.37 43.03,111.72C47.46,110.69 51.38,108.61 54.8,105.49C56.45,103.88 57.79,102.06 58.83,100.02C59.93,98.07 60.59,95.88 60.79,93.44C60.88,92.2 60.67,90.98 60.15,89.79C59.63,88.6 58.87,87.61 57.86,86.83C55.86,85.38 53.74,84.48 51.49,84.11C47.45,83.45 43.46,83.35 39.51,83.84C39.65,83.66 39.79,83.48 39.92,83.32C40.22,82.88 40.53,82.48 40.85,82.11L40.92,82.04C41.03,81.9 41.09,81.75 41.09,81.58C41.09,81.41 41.02,81.26 40.88,81.15C40.74,81.01 40.59,80.94 40.42,80.94C40.25,80.94 40.09,81.01 39.95,81.15C38.96,82.11 38.02,83.11 37.13,84.15C33.27,84.63 29.5,85.44 25.8,86.56C21.65,87.73 17.71,89.5 13.99,91.86C13.85,91.98 13.77,92.11 13.73,92.27C13.7,92.43 13.72,92.59 13.82,92.75C13.91,92.91 14.04,93.01 14.22,93.06C14.39,93.11 14.57,93.07 14.75,92.96C18.33,90.87 22.19,89.33 26.32,88.35C29.21,87.64 32.13,87.06 35.06,86.63C33.34,88.77 31.67,90.92 30.07,93.1C29.66,93.63 29.24,94.17 28.83,94.72C28.62,95.02 28.42,95.3 28.21,95.58C25.02,99.99 21.9,104.45 18.85,108.97C18.83,108.99 18.82,109.02 18.82,109.04C18.8,109.06 18.77,109.09 18.75,109.11C18.61,109.09 18.46,109.06 18.3,109.04C18.09,109.02 17.9,108.98 17.71,108.94L17.64,108.94C17.25,108.85 16.89,108.93 16.57,109.18C16.27,109.41 16.09,109.7 16.04,110.06C15.98,110.42 16.07,110.74 16.3,111.04C16.39,111.18 16.49,111.32 16.61,111.45C16.72,111.59 16.83,111.73 16.92,111.86C16.83,111.98 16.75,112.1 16.68,112.24C14.16,115.96 11.69,119.71 9.28,123.5C9.23,123.57 9.19,123.64 9.14,123.71C6.06,128.42 3.06,133.34 0.12,138.48C-0.02,138.71 -0.06,138.94 -0,139.19C0.06,139.43 0.2,139.63 0.43,139.79C0.66,139.95 0.91,140 1.17,139.94C1.43,139.88 1.65,139.74 1.81,139.51L2,139.22L18.83,114.23C21.45,117.63 24.26,120.89 27.26,124.01C29.28,126.03 31.48,127.87 33.87,129.52C35.06,130.35 36.36,131.06 37.76,131.66C37.87,131.71 38,131.75 38.14,131.8C38.76,132.08 39.43,132.28 40.14,132.42C40.85,132.56 41.68,132.54 42.62,132.35C42.87,132.28 43.07,132.14 43.22,131.94C43.37,131.73 43.42,131.5 43.37,131.25C43.32,130.97 43.2,130.76 42.99,130.6C42.8,130.42 42.56,130.37 42.28,130.41ZM30.96,96.19L35.81,89C36.25,88.38 36.68,87.75 37.12,87.11C37.33,86.83 37.52,86.55 37.71,86.25C37.87,86.23 38.03,86.2 38.19,86.18C38.35,86.16 38.52,86.13 38.71,86.11C42.91,85.63 47.02,85.75 51.03,86.49C53.05,86.88 54.79,87.64 56.26,88.76C57.66,89.95 58.29,91.48 58.15,93.34C57.99,95.18 57.39,96.98 56.36,98.74C55.44,100.51 54.26,102.07 52.81,103.42C49.85,106.11 46.35,107.95 42.31,108.96C35.65,110.5 28.86,110.72 21.93,109.61L30.96,96.19Z" style="fill:rgb(245,238,208);fill-rule:nonzero;"/>
            <path d="M99.95,131.55C101.21,132.56 102.52,133.06 103.87,133.06C105.22,133.11 106.46,132.89 107.59,132.42C108.71,131.95 109.75,131.39 110.69,130.75C112.57,129.42 114.18,127.82 115.51,125.96C116.15,125.04 116.7,124.01 117.16,122.86C117.62,121.71 117.71,120.4 117.44,118.94C117.23,118.18 116.85,117.54 116.3,117.01C115.75,116.48 115.15,116.11 114.51,115.91C113.89,115.68 113.29,115.53 112.72,115.46C112.6,115.44 112.5,115.43 112.41,115.43C112.32,115.41 112.22,115.39 112.12,115.38C112.02,115.37 111.87,115.37 111.69,115.4C111.64,115.35 111.52,115.35 111.33,115.4C111.13,115.45 110.92,115.54 110.69,115.69C110.46,115.84 110.27,116.04 110.12,116.29C109.97,116.54 109.92,116.84 109.97,117.18C110.25,117.94 110.54,118.48 110.85,118.82C111.16,119.15 111.48,119.43 111.8,119.66C112.03,119.82 112.26,120 112.49,120.21L113.83,121.17L114.52,121.58C114.08,122.82 113.35,124.02 112.32,125.19C111.29,126.36 110.16,127.34 108.95,128.12C107.92,128.9 106.83,129.39 105.68,129.6C104.53,129.81 103.56,129.74 102.77,129.39C101.98,129.05 101.6,128.4 101.65,127.46C101.76,125.94 102.5,124.53 103.85,123.22C104.49,122.6 105.22,122.05 106.02,121.57C106.27,121.36 106.55,121.21 106.85,121.12C107.13,121.01 107.39,120.86 107.66,120.67C107.92,120.49 108.15,120.19 108.33,119.77L108.4,119.56C108.42,119.54 108.43,119.5 108.43,119.46C108.57,119.05 108.54,118.66 108.36,118.29C108.18,117.92 107.88,117.67 107.46,117.53C106.93,117.37 106.46,117.36 106.03,117.51C105.6,117.66 105.21,117.86 104.84,118.11C104.61,118.25 104.38,118.39 104.15,118.52C103.14,119.14 102.21,119.87 101.36,120.72C100.83,121.23 100.35,121.8 99.93,122.42C99.77,122.37 99.6,122.31 99.44,122.27C98.64,122.11 97.82,121.97 97,121.86C95.32,121.65 93.65,121.5 91.97,121.41C90.64,121.34 89.28,121.32 87.91,121.34C87.34,121.34 86.76,121.33 86.19,121.31C89.24,117.98 92.37,114.72 95.59,111.53C98.32,108.8 101.12,106.19 103.99,103.72C105.44,102.46 106.88,101.36 108.33,100.41C108.51,100.27 108.7,100.16 108.9,100.07C109.09,99.98 109.26,99.9 109.4,99.83C109.54,99.76 109.62,99.73 109.64,99.73L109.64,99.76C109.66,99.78 109.69,99.82 109.71,99.86L109.88,100.13C109.97,100.25 110.09,100.34 110.22,100.41C110.52,100.55 110.85,100.55 111.2,100.43C111.56,100.3 111.86,100.08 112.11,99.76C112.5,99.25 112.71,98.61 112.73,97.83C112.75,97.42 112.55,97.01 112.13,96.61C111.71,96.21 111.22,96.04 110.67,96.11C109.91,96.2 109.29,96.35 108.81,96.56C108.33,96.77 107.9,97 107.54,97.25C107.33,97.37 107.13,97.48 106.92,97.59C105.13,98.78 103.49,100.05 102,101.38C98.99,104.02 96.11,106.74 93.36,109.54C89.6,113.37 85.94,117.27 82.38,121.25L81.76,121.25C80.91,121.27 80.03,121.33 79.11,121.42L78.87,121.42C78.53,121.44 78.08,121.54 77.53,121.7C77.48,121.75 77.42,121.78 77.32,121.8C77.25,121.8 77.15,121.83 77.03,121.9C76.9,121.97 76.78,122.1 76.65,122.3C76.52,122.5 76.4,122.79 76.29,123.18C76.36,123.39 76.42,123.54 76.48,123.64C76.54,123.74 76.59,123.81 76.64,123.85C76.69,123.88 76.72,123.91 76.74,123.94C76.79,123.94 76.82,123.95 76.84,123.96C76.86,123.97 76.87,123.99 76.87,124.01C77.12,124.12 77.35,124.22 77.56,124.28L77.59,124.28C78.14,124.44 78.73,124.57 79.35,124.66C79.07,124.98 78.79,125.3 78.49,125.62C78.17,125.98 77.85,126.35 77.53,126.71C77.49,126.71 77.45,126.72 77.39,126.72L76.25,127.03L69.74,128.89C66.85,129.69 63.93,130.32 61,130.78C59.58,131.01 58.13,131.14 56.65,131.16C55.17,131.18 53.92,130.89 52.91,130.27C52.18,129.6 52.08,128.58 52.63,127.21C52.93,126.41 53.35,125.65 53.9,124.94L53.9,125.01C53.78,125.35 53.76,125.71 53.83,126.08C53.88,126.31 53.94,126.47 54.02,126.56C54.1,126.65 54.19,126.7 54.28,126.71C54.37,126.72 54.45,126.73 54.52,126.73L54.62,126.73C54.87,126.71 55.11,126.68 55.34,126.66C55.78,126.61 56.19,126.55 56.58,126.45C56.6,126.45 56.61,126.44 56.61,126.42C57.44,126.24 58.23,126.02 58.99,125.77C60.5,125.22 61.96,124.55 63.36,123.77C64.76,122.99 66.07,122.07 67.28,121.02C67.58,120.72 67.88,120.45 68.18,120.19C68.64,119.82 69.08,119.39 69.51,118.9C69.93,118.41 70.31,117.72 70.63,116.85C70.74,116.55 70.73,116.22 70.58,115.87C70.43,115.51 70.23,115.2 69.98,114.94C69.73,114.68 69.47,114.54 69.22,114.54C68.65,114.38 68.16,114.32 67.77,114.37L67.6,114.37C66.73,114.49 65.9,114.66 65.12,114.89C63.61,115.37 62.15,115.97 60.75,116.68C57.9,118.08 55.39,119.96 53.21,122.33C52.13,123.55 51.3,124.96 50.73,126.56C50.41,127.32 50.28,128.2 50.33,129.21C50.39,130.22 50.85,131.08 51.72,131.79C53.12,132.57 54.48,132.98 55.8,133.01C57.12,133.04 58.42,132.96 59.71,132.75C60.24,132.68 60.75,132.62 61.26,132.58C64.29,132.03 67.26,131.33 70.18,130.48L74.52,129.21L75.71,128.83C71.22,134.07 66.91,139.42 62.78,144.91C60.44,148.01 58.24,151.19 56.17,154.45C55.14,156.1 54.2,157.8 53.35,159.54C53.28,159.75 53.2,159.95 53.11,160.16C52.72,160.94 52.4,161.77 52.15,162.64C51.9,163.51 51.82,164.45 51.91,165.46C52,166.08 52.31,166.59 52.84,166.99C53.37,167.39 54.02,167.55 54.8,167.45C55.99,167.24 56.97,166.86 57.73,166.31C57.89,166.22 58.04,166.13 58.18,166.04C59.97,164.8 61.57,163.47 62.96,162.05C65.81,159.2 68.43,156.24 70.84,153.17C73.25,150.12 75.52,146.98 77.66,143.75C79.79,140.53 81.68,137.19 83.31,133.75C84.11,132.03 84.73,130.24 85.17,128.38C85.33,127.58 85.35,126.74 85.24,125.87C85.12,125 84.75,124.26 84.1,123.67C84.17,123.6 84.23,123.53 84.27,123.46C84.34,123.39 84.42,123.31 84.51,123.22L85.44,123.22C87.44,123.15 89.43,123.14 91.43,123.19C93.11,123.24 94.75,123.34 96.35,123.5C97.18,123.59 97.97,123.71 98.73,123.84C98.86,123.86 98.96,123.9 99.09,123.93C98.58,125 98.3,126.19 98.25,127.49C98.2,129.04 98.78,130.38 99.95,131.55ZM113.85,118.71C113.78,118.64 113.71,118.56 113.64,118.47C113.59,118.45 113.56,118.41 113.54,118.37C114.25,118.67 114.66,119.09 114.78,119.64L113.85,118.71ZM109.24,99.33C109.29,99.33 109.33,99.36 109.38,99.42C109.43,99.48 109.47,99.55 109.52,99.64C109.52,99.66 109.53,99.67 109.55,99.67C109.48,99.62 109.41,99.58 109.34,99.53C109.27,99.48 109.22,99.44 109.2,99.39C109.18,99.35 109.2,99.33 109.24,99.33ZM61.8,118.88C63.11,118.24 64.44,117.72 65.79,117.33C66.46,117.15 67.09,117.03 67.68,116.99C67.43,117.29 67.11,117.62 66.72,117.99C66.33,118.36 65.95,118.68 65.58,118.95C64.43,119.8 63.22,120.52 61.93,121.12C60.64,121.74 59.33,122.24 57.97,122.63C57.28,122.81 56.6,122.96 55.94,123.08L55.8,123.08C55.75,123.08 55.71,123.09 55.66,123.11C57.49,121.42 59.53,120 61.8,118.88ZM82.65,128.95C82.29,130.43 81.76,131.89 81.05,133.34C79.49,136.58 77.66,139.75 75.56,142.88C73.46,146 71.22,149.04 68.83,152C66.47,154.98 63.93,157.79 61.22,160.43C59.87,161.78 58.47,162.94 57.02,163.91C56.7,164.12 56.37,164.31 56.04,164.48C55.71,164.65 55.46,164.73 55.3,164.7C55.19,164.72 55.08,164.71 54.99,164.65C54.9,164.59 54.83,164.47 54.78,164.29C54.78,163.17 55.19,161.79 56,160.18C56.81,158.56 57.7,156.98 58.67,155.45C60.67,152.33 62.82,149.25 65.14,146.22C69.78,140.16 74.64,134.25 79.74,128.49C80.24,127.92 80.75,127.37 81.25,126.84C81.62,126.43 81.97,126.03 82.32,125.64C82.89,126.36 83,127.47 82.65,128.95Z" style="fill:rgb(245,238,208);fill-rule:nonzero;"/>
            <path d="M142.7,121.63L142.67,121.7C142.65,121.72 142.62,121.75 142.6,121.77C142.44,122.07 142.41,122.38 142.51,122.7C142.61,123.02 142.81,123.26 143.11,123.42C143.45,123.58 143.79,123.62 144.11,123.52C144.43,123.43 144.68,123.23 144.87,122.93C145.03,122.66 145.2,122.39 145.39,122.14C145.71,121.68 146,121.18 146.25,120.64C146.5,120.1 146.66,119.43 146.73,118.63C146.75,118.35 146.67,118.03 146.49,117.67C146.31,117.3 146.03,116.99 145.66,116.74C144.97,116.44 144.39,116.32 143.9,116.36C143.03,116.43 142.25,116.59 141.56,116.84L141.49,116.84C138.69,117.85 136.12,119.11 133.78,120.63C132.95,121.14 132.15,121.69 131.37,122.28C130.98,122.56 130.59,122.83 130.2,123.11C130.27,123.02 130.33,122.92 130.37,122.8C130.44,122.69 130.51,122.57 130.58,122.46L131.61,120.53L132.09,119.53L132.3,119.01C132.32,118.99 132.33,118.96 132.33,118.94C132.38,118.89 132.4,118.84 132.4,118.79C132.4,118.73 132.36,118.66 132.28,118.58C132.2,118.5 132.06,118.4 131.85,118.29C131.09,117.83 130.25,117.53 129.34,117.39L129.17,117.36C128.92,117.31 128.73,117.3 128.62,117.31C128.5,117.32 128.43,117.34 128.4,117.38C128.37,117.41 128.35,117.45 128.35,117.5C128.33,117.52 128.32,117.55 128.32,117.57L128.15,118.02L127.77,118.92L126.94,120.74L125.05,124.36C123.67,126.72 122.32,129.11 120.99,131.52L120.99,131.55L120.96,131.58C120.75,131.9 120.68,132.23 120.74,132.58C120.8,132.92 120.98,133.21 121.27,133.44C121.61,133.69 121.98,133.8 122.37,133.75C122.76,133.7 123.08,133.53 123.33,133.23L123.47,133.06C123.49,133.04 123.5,133.01 123.5,132.99C123.52,132.97 123.55,132.94 123.57,132.92C124.92,130.97 126.66,129.16 128.77,127.48C130.84,125.8 133,124.26 135.28,122.83C137.57,121.36 139.94,120.17 142.37,119.25C142.99,119.04 143.54,118.93 144.02,118.91L144.05,118.91C144,119.21 143.85,119.62 143.59,120.13C143.32,120.65 143.02,121.15 142.7,121.63Z" style="fill:rgb(245,238,208);fill-rule:nonzero;"/>
            <path d="M239.79,130.58C237.88,131.04 235.96,131.39 234.01,131.65C232.08,131.92 230.15,132.04 228.23,131.99C227.27,131.99 226.31,131.93 225.37,131.82C224.41,131.68 223.48,131.49 222.58,131.24C221.68,130.99 220.86,130.63 220.1,130.17C219.32,129.71 218.7,129.15 218.24,128.48C217.78,127.79 217.56,127.03 217.59,126.21C217.61,125.41 217.83,124.61 218.24,123.83C218.56,123.23 218.94,122.66 219.38,122.11C219.82,121.74 220.24,121.36 220.65,120.97C220.88,120.76 221.11,120.56 221.34,120.35C221.45,120.24 221.57,120.12 221.68,120.01C221.73,119.94 221.78,119.87 221.85,119.8C221.87,119.78 221.91,119.74 221.95,119.7C221.97,119.68 222,119.64 222.02,119.6L222.05,119.53C222.07,119.51 222.09,119.49 222.1,119.48C222.11,119.47 222.12,119.45 222.12,119.43C222.14,119.41 222.15,119.37 222.15,119.33C222.31,118.96 222.26,118.6 222.01,118.23C221.83,118 221.59,117.87 221.3,117.85C221.01,117.83 220.75,117.91 220.53,118.09L220.5,118.09C219.74,118.69 219.03,119.35 218.37,120.09C218.21,120.25 218.05,120.4 217.89,120.54C216.99,121.3 216.08,122.03 215.14,122.74C213.3,124.21 211.41,125.59 209.46,126.87C208.47,127.51 207.47,128.11 206.47,128.66C205.46,129.23 204.44,129.74 203.41,130.17C202.35,130.61 201.32,130.89 200.31,131.03C199.8,131.1 199.35,131.09 198.93,131C198.54,130.91 198.23,130.75 198,130.52C197.75,130.27 197.55,129.92 197.41,129.49C197.34,129.26 197.28,129.03 197.24,128.8C197.24,128.73 197.23,128.66 197.21,128.59L197.21,128.1C197.21,127.2 197.51,126.37 198.11,125.59C198.73,124.81 199.51,124.14 200.45,123.59C201.37,123.02 202.35,122.55 203.41,122.18C205.54,121.42 207.75,120.94 210.02,120.73C211.17,120.62 212.3,120.58 213.43,120.63C213.98,120.65 214.53,120.7 215.08,120.77C215.13,120.77 215.17,120.78 215.22,120.8C215.31,120.8 215.39,120.81 215.46,120.83C215.6,120.85 215.74,120.86 215.87,120.86C216.01,120.86 216.15,120.84 216.28,120.79C216.44,120.77 216.6,120.71 216.76,120.62L216.86,120.55C216.88,120.53 216.91,120.52 216.93,120.52C217.21,120.31 217.37,120.05 217.43,119.73C217.49,119.41 217.41,119.11 217.21,118.83C217.09,118.67 216.97,118.54 216.83,118.45C216.67,118.34 216.51,118.26 216.35,118.21C216.21,118.16 216.06,118.13 215.9,118.11C215.78,118.09 215.67,118.06 215.56,118.04L215.42,118.04C214.78,117.95 214.15,117.9 213.53,117.9C212.27,117.85 211.02,117.9 209.78,118.04C208.54,118.16 207.31,118.35 206.1,118.63C204.88,118.91 203.69,119.26 202.52,119.7C201.33,120.14 200.18,120.69 199.08,121.35C198.53,121.69 197.99,122.08 197.46,122.52C196.95,122.96 196.48,123.46 196.05,124.04C195.64,124.61 195.3,125.24 195.05,125.93C194.8,126.64 194.67,127.38 194.67,128.13L194.67,128.51C194.69,128.56 194.7,128.61 194.7,128.68L194.7,128.82C194.7,128.85 194.71,128.87 194.71,128.9C192.63,129.24 190.53,129.49 188.43,129.66C186.3,129.83 184.23,129.77 182.23,129.47C181.17,129.26 180.39,128.92 179.87,128.44C179.35,127.96 179.24,127.29 179.54,126.44C179.82,125.61 180.24,124.74 180.81,123.82C180.86,123.75 180.89,123.69 180.91,123.65C181,123.49 181.12,123.27 181.25,123C181.3,122.93 181.35,122.77 181.42,122.52C181.42,122.31 181.41,122.15 181.39,122.02C181.37,121.89 181.32,121.76 181.25,121.62C181.13,121.46 181.03,121.34 180.94,121.28C180.85,121.21 180.74,121.15 180.63,121.11C180.61,121.11 180.58,121.1 180.56,121.08C180.26,121.01 180.05,120.98 179.92,120.99C179.79,121 179.7,121.02 179.63,121.04C179.58,121.06 179.53,121.07 179.46,121.07C178.89,121.23 178.4,121.41 178.01,121.62C177.92,121.64 177.83,121.68 177.73,121.72C175.78,122.64 173.87,123.59 172.02,124.58C170.25,125.52 168.47,126.42 166.68,127.27C166.77,127.09 166.85,126.9 166.92,126.72C166.99,126.61 167.05,126.49 167.09,126.38C167.59,125.42 168.07,124.4 168.5,123.32C168.5,123.27 168.51,123.23 168.53,123.18C168.74,122.7 168.9,122.11 169.01,121.42C169.12,121.08 169.07,120.55 168.84,119.84C168.5,119.36 168.13,119.05 167.74,118.93C167.35,118.8 166.99,118.76 166.67,118.81L166.5,118.84C164.59,119.46 162.87,120.22 161.34,121.11C161.18,121.2 161.02,121.29 160.86,121.38L155.73,124.34L152.36,126.44L154.56,123.55L155.66,122.1C155.73,121.92 155.84,121.76 156,121.62C156.16,121.48 156.28,121.32 156.36,121.12C156.44,120.93 156.4,120.66 156.24,120.31C155.85,119.53 155.21,119.08 154.31,118.97L154.24,118.97C153.85,118.92 153.57,118.97 153.41,119.11C153.25,119.25 153.13,119.41 153.07,119.59C152.98,119.77 152.86,119.93 152.73,120.07L151.7,121.55L149.6,124.48L145.47,130.33L145.37,130.43C145.3,130.57 145.24,130.72 145.2,130.88C145.2,130.93 145.19,130.96 145.18,130.98C145.17,131 145.15,131.01 145.13,131.01C145.13,131.03 145.12,131.05 145.11,131.06C145.1,131.07 145.09,131.09 145.09,131.13L145.09,131.27C145.09,131.33 145.1,131.41 145.11,131.51C145.12,131.61 145.14,131.75 145.16,131.91C145.25,132.16 145.38,132.38 145.56,132.56C145.73,132.74 145.9,132.86 146.06,132.9C146.13,132.95 146.2,132.97 146.27,132.99C146.34,133 146.41,133.01 146.48,133.01C146.6,133.03 146.73,133.04 146.88,133.03C147.03,133.02 147.13,133.01 147.17,133.01C147.47,132.92 147.69,132.84 147.82,132.77L148.58,132.36L149.89,131.6L152.37,130.02L157.33,126.89L162.29,123.9C163.53,123.19 164.77,122.58 166.01,122.08C166.01,122.13 166,122.17 165.98,122.22C165.98,122.27 165.97,122.31 165.95,122.36C165.58,123.3 165.17,124.25 164.71,125.22C164.57,125.54 164.42,125.85 164.26,126.15C163.94,126.79 163.63,127.5 163.33,128.28L163.12,128.76L163.05,129.28L163.05,129.52C163.05,129.57 163.06,129.61 163.08,129.66C163.1,129.89 163.23,130.12 163.46,130.37C163.69,130.61 163.93,130.75 164.18,130.8C164.52,130.8 164.78,130.79 164.94,130.77C165.1,130.75 165.23,130.71 165.32,130.67C165.41,130.65 165.5,130.62 165.6,130.6C166.2,130.37 166.75,130.14 167.25,129.91C169.34,128.9 171.37,127.84 173.34,126.74C174.88,125.91 176.4,125.12 177.92,124.36C177.69,124.84 177.51,125.36 177.37,125.91C177.19,126.53 177.16,127.22 177.3,127.99C177.44,128.76 177.79,129.42 178.37,129.97C179.52,130.84 180.68,131.34 181.85,131.45C184.03,131.7 186.15,131.71 188.2,131.47C190.25,131.23 192.29,130.93 194.31,130.56C194.56,130.51 194.81,130.47 195.07,130.42C195.07,130.42 195.08,130.42 195.08,130.41C195.3,131.07 195.68,131.69 196.24,132.28C196.54,132.58 196.88,132.83 197.27,133.04C197.64,133.22 198.02,133.35 198.41,133.42C199.17,133.58 199.89,133.6 200.58,133.49C201.27,133.4 201.92,133.26 202.54,133.08C203.16,132.9 203.76,132.68 204.33,132.43C205.48,131.93 206.58,131.37 207.64,130.78C208.7,130.16 209.73,129.52 210.74,128.85C212.44,127.7 214.08,126.5 215.66,125.24C215.61,125.56 215.59,125.89 215.59,126.24C215.57,126.84 215.65,127.42 215.83,128C216.01,128.57 216.28,129.1 216.62,129.58C217.31,130.54 218.15,131.3 219.13,131.85C220.07,132.38 221.06,132.78 222.09,133.05C224.11,133.58 226.15,133.82 228.22,133.77C230.24,133.75 232.25,133.57 234.24,133.25C236.24,132.95 238.2,132.54 240.13,132.01C242.08,131.51 244,130.93 245.88,130.29C247.76,129.65 249.62,128.95 251.46,128.19C251.62,128.12 251.73,128.02 251.79,127.88C251.85,127.74 251.85,127.59 251.81,127.43C251.74,127.29 251.64,127.19 251.5,127.12C251.36,127.05 251.21,127.05 251.05,127.12C249.21,127.81 247.35,128.45 245.47,129.05C243.58,129.61 241.69,130.13 239.79,130.58Z" style="fill:rgb(245,238,208);fill-rule:nonzero;"/>
            <path d="M411.92,117.02C411.37,116.49 410.77,116.12 410.13,115.92C409.51,115.69 408.91,115.54 408.34,115.47C408.22,115.45 408.12,115.44 408.03,115.44C407.94,115.42 407.84,115.4 407.74,115.39C407.64,115.38 407.49,115.38 407.31,115.41C407.26,115.36 407.14,115.36 406.95,115.41C406.75,115.46 406.54,115.55 406.31,115.7C406.08,115.85 405.89,116.05 405.74,116.3C405.59,116.55 405.54,116.85 405.59,117.19C405.87,117.95 406.16,118.49 406.47,118.83C406.78,119.16 407.1,119.44 407.42,119.67C407.65,119.83 407.88,120.01 408.11,120.22L409.45,121.18L410.14,121.59C409.7,122.83 408.97,124.03 407.94,125.2C406.91,126.37 405.78,127.35 404.57,128.13C403.54,128.91 402.45,129.4 401.3,129.61C400.15,129.82 399.18,129.75 398.39,129.4C397.6,129.06 397.22,128.41 397.27,127.47C397.31,126.97 397.42,126.48 397.59,126.01C397.65,125.93 397.7,125.85 397.73,125.75C397.74,125.71 397.74,125.66 397.74,125.62C398.11,124.79 398.68,124 399.46,123.24C400.1,122.62 400.83,122.07 401.63,121.59C401.88,121.38 402.16,121.23 402.46,121.14C402.74,121.03 403,120.88 403.27,120.69C403.53,120.51 403.76,120.21 403.94,119.79L404.01,119.58C404.03,119.56 404.04,119.52 404.04,119.48C404.18,119.07 404.15,118.68 403.97,118.31C403.79,117.94 403.49,117.69 403.07,117.55C402.54,117.39 402.07,117.38 401.64,117.53C401.21,117.68 400.82,117.88 400.45,118.13C400.22,118.27 399.99,118.41 399.76,118.54C398.75,119.16 397.82,119.89 396.97,120.74C396.1,121.57 395.37,122.55 394.78,123.68C394.65,123.93 394.54,124.18 394.44,124.44C394.29,124.47 394.14,124.51 394,124.52C392.97,124.77 391.98,125.08 391.04,125.45C389.16,126.21 387.33,127.04 385.57,127.96C381.99,129.75 378.49,131.68 375.07,133.74C374.68,133.99 374.29,134.23 373.9,134.46C373.58,134.69 373.25,134.9 372.9,135.08C373.04,134.87 373.18,134.67 373.31,134.46C374.78,132.3 376.21,130.12 377.61,127.92L380.74,122.83C381.27,121.98 381.77,121.07 382.25,120.11L382.46,119.7C382.46,119.65 382.47,119.62 382.48,119.6C382.49,119.58 382.5,119.55 382.5,119.53C382.52,119.51 382.55,119.48 382.57,119.44C382.59,119.41 382.61,119.35 382.62,119.27C382.63,119.19 382.64,119.08 382.64,118.93C382.64,118.78 382.63,118.58 382.61,118.33C382.63,118.12 382.51,117.92 382.23,117.71C381.95,117.5 381.65,117.35 381.32,117.26C380.99,117.17 380.74,117.2 380.58,117.36C380.53,117.38 380.5,117.4 380.48,117.41C380.46,117.42 380.44,117.43 380.43,117.43L380.38,117.43C380.38,117.45 380.37,117.46 380.35,117.46L380.01,117.7L379.8,117.94L379.52,118.21C379.24,118.51 378.92,118.82 378.56,119.14C377.83,119.74 377.07,120.32 376.29,120.9C376.08,121.06 375.88,121.21 375.67,121.35C374.96,120.73 374.15,120.32 373.24,120.13C372.33,119.94 371.44,119.8 370.57,119.73C370.39,119.73 370.2,119.72 370.02,119.7C367.77,119.68 365.6,120.09 363.51,120.94C361.38,121.77 359.56,123.14 358.07,125.07C357.63,125.69 357.29,126.35 357.02,127.05L354.91,127.65L350.57,128.89C347.68,129.69 344.76,130.32 341.83,130.78C340.41,131.01 338.96,131.14 337.48,131.16C336,131.18 334.75,130.89 333.74,130.27C333.01,129.6 332.91,128.58 333.46,127.21C333.76,126.41 334.18,125.65 334.73,124.94L334.73,125.01C334.61,125.35 334.59,125.71 334.66,126.08C334.71,126.31 334.77,126.47 334.85,126.56C334.93,126.65 335.02,126.7 335.11,126.71C335.2,126.72 335.28,126.73 335.35,126.73L335.45,126.73C335.7,126.71 335.94,126.68 336.17,126.66C336.61,126.61 337.02,126.55 337.41,126.45C337.43,126.45 337.44,126.44 337.44,126.42C338.27,126.24 339.06,126.02 339.82,125.77C341.33,125.22 342.79,124.55 344.19,123.77C345.59,122.99 346.9,122.07 348.11,121.02C348.41,120.72 348.71,120.45 349.01,120.19C349.47,119.82 349.91,119.39 350.34,118.9C350.76,118.41 351.14,117.72 351.46,116.85C351.57,116.55 351.56,116.22 351.41,115.87C351.26,115.51 351.06,115.2 350.81,114.94C350.56,114.68 350.3,114.54 350.05,114.54C349.48,114.38 348.99,114.32 348.6,114.37L348.43,114.37C347.56,114.49 346.73,114.66 345.95,114.89C344.44,115.37 342.98,115.97 341.58,116.68C338.73,118.08 336.22,119.96 334.04,122.33C333,123.51 332.19,124.87 331.62,126.41C329.26,127.36 326.88,128.24 324.47,129.01C323.09,129.47 321.72,129.85 320.34,130.15C319.65,130.31 318.96,130.44 318.27,130.53C317.58,130.62 316.92,130.67 316.27,130.67C315.6,130.65 315.04,130.53 314.58,130.33C314.37,130.22 314.21,130.09 314.1,129.95C314.01,129.81 313.94,129.63 313.89,129.4C313.8,128.94 313.84,128.39 314.03,127.75C314.19,127.13 314.41,126.5 314.68,125.86C314.96,125.24 315.25,124.62 315.57,124L315.81,123.55L315.95,123.28C316,123.19 316.04,123.1 316.09,123C316.27,122.66 316.45,122.28 316.61,121.86C316.75,121.45 316.83,120.98 316.85,120.45C316.87,120.2 316.85,119.92 316.78,119.62C316.71,119.32 316.6,119.02 316.44,118.72C316.26,118.44 316.04,118.2 315.79,118C315.54,117.82 315.27,117.68 315,117.59C314.49,117.41 314.02,117.3 313.59,117.28C312.72,117.26 311.89,117.33 311.11,117.49C310.33,117.65 309.58,117.85 308.87,118.08C307.4,118.56 306,119.12 304.67,119.77C302.21,120.96 299.88,122.33 297.67,123.88C297.66,123.88 297.66,123.87 297.65,123.86C297.47,123.77 297.27,123.77 297.06,123.86C296.72,123.99 296.37,124.11 296.03,124.24L297.47,121.97C301,116.44 304.56,110.92 308.14,105.41C311.7,99.9 315.3,94.42 318.95,88.95L324.42,80.79L327.17,76.69L328.55,74.62C328.78,74.3 328.97,73.94 329.14,73.55C329.23,73.34 329.3,73.14 329.35,72.93C329.42,72.72 329.45,72.49 329.45,72.24C329.45,72.08 329.42,71.91 329.35,71.72C329.19,71.38 328.94,71.13 328.59,70.98C328.25,70.83 327.89,70.84 327.52,71C327.29,71.09 327.09,71.21 326.93,71.34C326.75,71.46 326.59,71.59 326.45,71.75C326.15,72.05 325.9,72.37 325.69,72.71L324.31,74.78L321.59,78.88L316.15,87.11C312.55,92.6 308.97,98.12 305.41,103.67C301.88,109.2 298.38,114.76 294.91,120.33C293.75,122.17 292.62,124.01 291.47,125.85C288.63,126.82 285.78,127.72 282.9,128.52C280.51,129.23 278.13,129.77 275.74,130.14C274.59,130.32 273.43,130.38 272.25,130.29C271.07,130.21 270.36,129.96 270.13,129.55C269.99,129.32 270.03,128.91 270.25,128.31C270.47,127.71 270.79,127.08 271.23,126.4C271.67,125.72 272.13,125.13 272.61,124.63C274.19,122.95 276.05,121.67 278.19,120.77C280.37,119.85 282.55,119.43 284.73,119.5C284.8,119.52 284.87,119.53 284.94,119.53C284.99,119.53 285.03,119.54 285.08,119.56L285.05,119.56L285.02,119.59C284.9,119.68 284.78,119.76 284.64,119.83C284.46,119.9 284.3,120.01 284.16,120.16C284.02,120.31 283.94,120.57 283.92,120.93L283.89,121.14C283.87,121.99 284.25,122.63 285.03,123.07C285.4,123.23 285.71,123.27 285.96,123.19C286.21,123.11 286.44,122.98 286.65,122.79C286.81,122.68 286.97,122.57 287.13,122.48C287.22,122.41 287.3,122.33 287.37,122.24C287.65,122.06 287.91,121.83 288.18,121.55C288.44,121.28 288.7,120.9 288.95,120.41C289.11,120.13 289.2,119.77 289.23,119.31C289.25,118.85 289.16,118.4 288.95,117.97C288.44,117.24 287.94,116.79 287.44,116.63C286.52,116.26 285.71,116.08 285,116.08C282.08,116.06 279.4,116.63 276.94,117.8C274.42,118.92 272.22,120.52 270.36,122.58C269.47,123.61 268.7,124.75 268.05,125.99C268,126.11 267.96,126.21 267.91,126.3C267.61,126.9 267.39,127.58 267.24,128.35C267.09,129.12 267.23,129.98 267.67,130.95C268.29,131.82 268.97,132.37 269.72,132.6C270.47,132.83 271.16,132.96 271.8,132.98C271.91,132.98 272.03,132.99 272.14,133.01C273.54,133.03 274.88,132.92 276.17,132.67C278.72,132.21 281.2,131.58 283.61,130.78C285.71,130.07 287.78,129.3 289.83,128.5C288.05,131.35 286.26,134.19 284.5,137.04L284.47,137.04C284.26,137.38 284.21,137.75 284.3,138.12C284.39,138.5 284.6,138.79 284.92,139C285.26,139.23 285.63,139.3 286,139.21C286.38,139.12 286.68,138.91 286.91,138.59C288.42,136.23 290.18,134.03 292.18,132.01C294.15,129.99 296.29,128.14 298.58,126.47C300.85,124.77 303.25,123.29 305.77,122.03C307.03,121.39 308.32,120.85 309.63,120.41C310.3,120.18 310.95,120 311.59,119.86C312.26,119.72 312.88,119.67 313.45,119.69C313.73,119.71 313.95,119.76 314.14,119.83C314.23,119.85 314.29,119.88 314.31,119.9C314.36,119.95 314.39,119.98 314.41,120C314.41,120.02 314.42,120.06 314.44,120.1C314.46,120.17 314.47,120.25 314.47,120.34C314.47,120.55 314.42,120.79 314.33,121.06C314.24,121.33 314.12,121.62 313.99,121.92C313.94,121.99 313.9,122.06 313.85,122.13L313.75,122.37L313.51,122.89C313.17,123.56 312.84,124.24 312.55,124.96C312.25,125.65 312.01,126.39 311.83,127.2C311.74,127.59 311.68,128 311.66,128.44C311.61,128.9 311.65,129.37 311.76,129.85C311.85,130.36 312.08,130.83 312.45,131.26C312.82,131.7 313.23,132.01 313.69,132.19C314.13,132.4 314.56,132.52 315,132.57C315.41,132.64 315.83,132.67 316.24,132.67C317.04,132.67 317.82,132.6 318.58,132.46C319.31,132.32 320.05,132.16 320.78,131.98C322.23,131.61 323.64,131.18 325.01,130.67C327.09,129.92 329.14,129.09 331.17,128.21C331.15,128.52 331.14,128.85 331.15,129.19C331.21,130.2 331.67,131.06 332.54,131.77C333.94,132.55 335.3,132.96 336.62,132.99C337.94,133.02 339.24,132.94 340.53,132.73C341.06,132.66 341.57,132.6 342.08,132.56C345.11,132.01 348.08,131.31 351,130.46L355.34,129.19L356.5,128.82C356.49,128.87 356.48,128.93 356.47,128.98C356.42,129.16 356.39,129.36 356.37,129.58C356.35,129.8 356.35,130.07 356.37,130.39C356.37,130.87 356.56,131.38 356.94,131.91C357.32,132.44 357.78,132.77 358.33,132.91C359.09,133.09 359.73,133.15 360.26,133.08C360.79,133.01 361.27,132.91 361.71,132.77C361.89,132.72 362.09,132.68 362.3,132.63C363.33,132.29 364.32,131.88 365.26,131.42C367.12,130.55 368.92,129.58 370.66,128.53C372.47,127.41 374.24,126.24 375.96,125.02L375.13,126.4C373.04,129.75 370.91,133.08 368.73,136.38C368.43,136.82 368.13,137.25 367.83,137.69C367.6,138.03 367.36,138.38 367.11,138.72C363.02,141.36 359.02,144.11 355.1,146.98C351.89,149.34 348.78,151.87 345.77,154.55C344.26,155.88 342.81,157.32 341.43,158.85C341.22,159.13 341.01,159.4 340.78,159.68C340.21,160.32 339.68,161.03 339.21,161.81C338.74,162.59 338.44,163.55 338.3,164.7C338.3,165.85 338.61,166.99 339.23,168.14C339.6,168.8 340.18,169.26 340.97,169.5C341.76,169.74 342.47,169.75 343.09,169.52C344.17,169.18 345.12,168.72 345.95,168.16C346.78,167.6 347.55,166.99 348.26,166.35C348.35,166.26 348.46,166.17 348.57,166.07C351.55,163.29 354.3,160.34 356.8,157.22C361.62,151.25 366.16,145.11 370.43,138.8C370.98,138.43 371.53,138.07 372.08,137.7C373.36,136.85 374.66,136.02 375.97,135.22C379.34,133.13 382.79,131.18 386.3,129.37C388.04,128.45 389.82,127.63 391.64,126.89C392.43,126.57 393.22,126.31 393.99,126.07C393.91,126.51 393.86,126.96 393.84,127.44C393.82,128.96 394.39,130.3 395.56,131.47C396.82,132.48 398.13,132.98 399.48,132.98C400.83,133.03 402.07,132.81 403.2,132.34C404.32,131.87 405.36,131.31 406.3,130.67C408.18,129.34 409.79,127.74 411.12,125.88C411.76,124.96 412.31,123.93 412.77,122.78C413.23,121.63 413.32,120.32 413.05,118.86C412.85,118.19 412.47,117.55 411.92,117.02ZM379.69,118.54C379.71,118.54 379.72,118.55 379.72,118.56C379.72,118.57 379.71,118.58 379.69,118.58L379.69,118.54ZM342.65,118.88C343.96,118.24 345.29,117.72 346.64,117.33C347.31,117.15 347.94,117.03 348.53,116.99C348.28,117.29 347.96,117.62 347.57,117.99C347.18,118.36 346.8,118.68 346.43,118.95C345.28,119.8 344.07,120.52 342.78,121.12C341.49,121.74 340.18,122.24 338.82,122.63C338.13,122.81 337.45,122.96 336.79,123.08L336.65,123.08C336.6,123.08 336.56,123.09 336.51,123.11C338.34,121.42 340.38,120 342.65,118.88ZM372.05,123.91C371.06,124.58 370.05,125.22 369.02,125.84C367.34,126.85 365.65,127.76 363.93,128.56C363.19,128.9 362.43,129.2 361.62,129.44C360.82,129.68 360.2,129.81 359.76,129.84L359.76,129.7C359.81,129.52 359.84,129.34 359.86,129.18C360.02,128.45 360.34,127.76 360.82,127.11C361.81,125.83 363.14,124.86 364.81,124.22C366.46,123.55 368.17,123.24 369.94,123.29C370.83,123.27 371.67,123.39 372.45,123.67C372.33,123.73 372.19,123.81 372.05,123.91ZM354.87,155.71C352.41,158.83 349.79,161.72 346.99,164.39C345.54,165.79 344.05,166.78 342.51,167.35C342.14,167.44 341.86,167.46 341.67,167.42C341.48,167.37 341.3,167.22 341.14,166.97C340.98,166.72 340.85,166.38 340.74,165.95C340.63,165.52 340.57,165.12 340.55,164.73C340.6,164.09 340.88,163.37 341.39,162.58C341.91,161.79 342.47,161.04 343.09,160.32C344.35,158.87 345.72,157.49 347.19,156.15C350.1,153.51 353.15,151.01 356.31,148.65C358.93,146.7 361.58,144.81 364.26,142.97C361.26,147.34 358.13,151.58 354.87,155.71ZM409.47,118.71C409.4,118.64 409.33,118.56 409.26,118.47C409.21,118.45 409.18,118.41 409.16,118.37C409.87,118.67 410.28,119.09 410.4,119.64L409.47,118.71Z" style="fill:rgb(245,238,208);fill-rule:nonzero;"/>
            <path d="M455.52,129.77C455.6,129.64 455.62,129.5 455.57,129.34C455.52,129.18 455.43,129.06 455.28,129C455.13,128.93 454.96,128.92 454.78,128.97C453.43,129.34 452.07,129.68 450.72,130C449.34,130.32 447.97,130.61 446.59,130.86C445.21,131.09 443.84,131.25 442.46,131.34C441.08,131.45 439.73,131.43 438.4,131.27C437.73,131.18 437.11,131.03 436.54,130.82C435.94,130.61 435.45,130.34 435.06,129.99C434.67,129.62 434.42,129.2 434.3,128.72C434.18,128.24 434.2,127.72 434.33,127.17C434.51,126.39 434.83,125.64 435.29,124.93C435.31,124.91 435.34,124.88 435.36,124.86C435.38,124.84 435.42,124.81 435.46,124.79C436.65,123.67 437.81,122.52 438.94,121.35L438.97,121.35C439.13,121.14 439.22,120.93 439.25,120.7C439.27,120.47 439.2,120.24 439.04,120.01C438.86,119.78 438.62,119.64 438.32,119.6C438.02,119.55 437.73,119.61 437.46,119.77C436.17,120.62 435.08,121.63 434.19,122.8L434.19,122.83C432.88,124 431.52,125.11 430.09,126.17C428.83,127.11 427.52,127.96 426.17,128.72C425.48,129.11 424.78,129.44 424.07,129.72C423.38,130.02 422.69,130.23 422,130.34C421.68,130.39 421.38,130.4 421.1,130.37C420.85,130.35 420.68,130.3 420.58,130.23C420.53,130.21 420.49,130.17 420.44,130.13C420.42,130.08 420.39,130.03 420.37,129.96C420.32,129.82 420.31,129.62 420.34,129.34C420.39,128.77 420.57,128.16 420.89,127.51C421.19,126.89 421.56,126.27 421.99,125.65C422.84,124.43 423.81,123.27 424.92,122.17C425.47,121.62 426.03,121.09 426.61,120.59C426.91,120.31 427.21,120.05 427.51,119.8C427.56,119.75 427.6,119.72 427.65,119.7C427.74,119.61 427.83,119.51 427.93,119.39C428.04,119.23 428.09,119 428.07,118.7L428.07,118.67C427.98,117.96 427.54,117.51 426.76,117.33C426.6,117.31 426.46,117.31 426.35,117.33C426.21,117.35 426.1,117.39 426.01,117.43C425.87,117.5 425.75,117.59 425.63,117.7C425.58,117.72 425.54,117.76 425.49,117.8C425.19,118.08 424.89,118.35 424.59,118.63C423.97,119.18 423.37,119.75 422.8,120.35C421.63,121.54 420.56,122.84 419.6,124.24C419.12,124.93 418.69,125.67 418.33,126.48C417.94,127.26 417.69,128.14 417.57,129.13C417.52,129.64 417.59,130.19 417.78,130.78C417.9,131.1 418.07,131.4 418.3,131.68C418.53,131.96 418.79,132.19 419.09,132.37C419.71,132.71 420.32,132.89 420.91,132.89C421.48,132.94 422.01,132.91 422.49,132.82C423.45,132.61 424.34,132.34 425.14,131.99C425.97,131.62 426.76,131.23 427.52,130.82C428.99,129.95 430.38,128.99 431.69,127.96C431.8,127.89 431.92,127.81 432.03,127.72C432.08,127.67 432.13,127.63 432.2,127.58C432.15,128.11 432.2,128.65 432.34,129.2C432.45,129.59 432.63,129.97 432.86,130.34C433.11,130.71 433.4,131.04 433.72,131.34C434.39,131.87 435.11,132.26 435.89,132.51C436.65,132.74 437.4,132.89 438.16,132.96C439.67,133.1 441.15,133.09 442.6,132.93C444.07,132.79 445.5,132.57 446.9,132.28C449.72,131.68 452.48,130.95 455.16,130.08C455.31,130 455.44,129.9 455.52,129.77Z" style="fill:rgb(245,238,208);fill-rule:nonzero;"/>
            <path d="M457.19,143.18C456.82,143 456.37,143.01 455.83,143.23C455.29,143.45 454.81,143.8 454.4,144.28C453.83,144.99 453.29,145.78 452.78,146.64C452.28,147.5 451.91,148.22 451.68,148.79C451.43,149.34 451.4,149.81 451.59,150.18C451.79,150.56 452.17,150.72 452.74,150.68C453.29,150.68 453.82,150.5 454.32,150.15C454.83,149.79 455.18,149.34 455.39,148.79C455.62,148.03 456.06,147.23 456.7,146.38C456.86,146.2 457.01,146 457.15,145.79C457.77,144.99 458.05,144.4 457.98,144.02C457.91,143.65 457.64,143.37 457.19,143.18Z" style="fill:rgb(245,238,208);fill-rule:nonzero;"/>
            <path d="M515.21,82.63C514.19,80.06 512.41,77.99 509.87,76.42C507.33,74.85 504.05,74.06 500.01,74.06C498.08,74.06 495.95,74.29 493.61,74.75C489.75,75.46 485.65,76.96 481.3,79.24C476.95,81.52 472.93,84.37 469.23,87.78C465.53,91.19 462.75,94.94 460.86,99.02C458.59,103.5 457.88,107.02 458.73,109.61C459.58,112.19 461.71,113.48 465.13,113.48L465.54,113.48C466.16,113.5 466.69,113.47 467.12,113.39C467.56,113.31 467.81,113.06 467.88,112.65C468.04,112.1 468,111.65 467.76,111.29C467.52,110.93 467.16,110.76 466.68,110.76C465.05,110.76 463.89,110.17 463.2,109C462.51,107.83 462.26,106.38 462.44,104.66C462.62,102.94 463.22,101.2 464.23,99.43C466.04,95.74 468.63,92.43 471.99,89.52C475.35,86.61 478.93,84.2 482.71,82.31C486.5,80.42 489.95,79.17 493.07,78.57C495.16,78.2 497.1,78.02 498.89,78.02C502.33,78.02 505.1,78.64 507.19,79.88C509.28,81.12 510.73,82.76 511.54,84.8C512.35,86.84 512.58,89.08 512.21,91.51C511.8,93.65 511.05,95.64 509.97,97.5C508.36,100.18 506.28,102.58 503.72,104.68C501.16,106.78 498.38,108.68 495.39,110.38C492.4,112.08 489.44,113.64 486.53,115.06C486.41,115.13 486.29,115.19 486.15,115.23C482.96,116.84 479.84,118.55 476.8,120.38C473.76,122.21 470.87,124.36 468.14,126.85C465.41,129.34 462.91,132.38 460.64,135.96C460.3,136.56 460.09,137.11 460.04,137.63C459.98,138.15 460.16,138.46 460.57,138.58C461.1,138.69 461.54,138.57 461.9,138.2C462.26,137.83 462.56,137.36 462.81,136.79C465.95,132.59 469.5,129.16 473.45,126.51C477.4,123.86 481.63,121.42 486.15,119.19C491.91,116.32 497.19,113.29 502,110.1C506.81,106.91 510.52,103.17 513.14,98.88C514.52,96.56 515.45,93.97 515.93,91.1C516.48,88.02 516.23,85.2 515.21,82.63Z" style="fill:rgb(245,238,208);fill-rule:nonzero;"/>
            <path d="M132.51,81.73L132.51,80.94L144.79,80.94C150.49,102.16 146.46,103.83 145.58,103.83L164.44,103.83C164.44,103.83 159.53,103.83 152.95,80.06L141.46,35.85L133.31,38.31L137.44,55.5L130.07,84.18C124.27,104.61 116.12,104.61 116.12,104.61L135.77,104.61C135.75,104.62 126.72,104.62 132.51,81.73ZM138.21,57.18L143.91,80.07L132.51,80.07L138.21,57.18Z" style="fill:rgb(245,238,208);fill-rule:nonzero;"/>
            <path d="M180.16,103.84C189.98,103.84 197.35,88.32 197.35,69.46C197.35,50.6 189.2,34.98 180.16,34.98C170.34,34.98 162.97,50.6 162.97,69.46C162.97,88.32 170.33,103.84 180.16,103.84ZM180.16,36.64C185.07,36.64 188.31,51.38 188.31,69.45C188.31,87.43 184.28,102.16 180.16,102.16C175.25,102.16 172.01,87.42 172.01,69.45C172,51.38 175.25,36.64 180.16,36.64Z" style="fill:rgb(245,238,208);fill-rule:nonzero;"/>
            <path d="M205.6,57.96L205.6,80.95C205.6,103.84 196.56,103.84 196.56,103.84L215.42,103.84C215.42,103.84 206.38,103.84 206.38,80.16L206.38,38.31L237.52,103.83L239.19,103.83L239.19,58.85C239.19,35.08 248.23,35.08 248.23,35.08L228.58,35.08C228.58,35.08 237.52,35.08 237.52,57.97L237.52,83.4L214.63,35.07L196.55,35.07C196.57,35.07 205.6,35.07 205.6,57.96Z" style="fill:rgb(245,238,208);fill-rule:nonzero;"/>
            <path d="M248.63,103.84L266.61,103.84C278.89,103.84 288.71,88.32 288.71,69.46C288.71,50.6 278.89,35.08 266.61,35.08L248.63,35.08C248.63,35.08 253.54,35.08 253.54,58.85L253.54,80.17C253.54,103.84 248.63,103.84 248.63,103.84ZM262.48,35.86L266.61,35.86C273.98,35.86 280.56,50.6 280.56,68.67C280.56,86.65 274.86,101.38 266.61,101.38L262.48,101.38L262.48,35.86Z" style="fill:rgb(245,238,208);fill-rule:nonzero;"/>
            <path d="M290.87,103.84L301.79,103.84C302.16,103.26 302.53,102.67 302.9,102.08C303.24,101.55 303.59,101.01 303.93,100.48L303.93,70.24C313.78,71.2 317.98,74.02 319.78,76.26L321.13,74.23L321.13,59.63C321.13,59.63 321.13,67 303.94,68.67L303.94,36.64C326.04,37.52 326.04,57.96 326.04,57.96L326.04,35.07L290.87,35.07C290.87,35.07 295.78,35.07 295.78,58.84L295.78,80.16C295.79,103.84 290.87,103.84 290.87,103.84Z" style="fill:rgb(245,238,208);fill-rule:nonzero;"/>
            <path d="M315.86,99.08C314.82,100.66 313.79,102.25 312.76,103.84L326.04,103.84L326.04,83.79L325.65,84.37C324.9,88.42 322.62,95.12 315.86,99.08Z" style="fill:rgb(245,238,208);fill-rule:nonzero;"/>
            <path d="M351.78,104.62L371.43,104.62C371.43,104.62 362.39,104.62 368.19,81.73L368.19,80.94L380.47,80.94C386.17,102.16 382.14,103.83 381.26,103.83L400.12,103.83C400.12,103.83 395.21,103.83 388.63,80.06L377.14,35.85L368.99,38.31L373.12,55.5L365.75,84.18C359.93,104.62 351.78,104.62 351.78,104.62ZM373.88,57.18L379.58,80.07L368.18,80.07L373.88,57.18Z" style="fill:rgb(245,238,208);fill-rule:nonzero;"/>
            <path d="M431.38,34.79C425.47,15.78 401.76,3.68 364.62,0.71C330.01,-2.06 287.49,3.38 244.1,16.03C247.82,16.04 251.54,16.05 255.27,16.07C300.46,3.9 317.13,2.86 346.23,2.86C352.49,2.86 358.56,3.08 364.39,3.56C395.37,6.1 422.07,18.18 428.65,35.64C433.89,49.53 426.75,65.31 411.33,82.24C412.3,82.53 413.2,82.97 413.98,83.55C429.71,66.02 435.85,49.14 431.38,34.79Z" style="fill:rgb(245,238,208);fill-rule:nonzero;"/>
            <path d="M250.68,148.26L265.37,155.73C222.1,169.76 205.56,171.66 176.85,173.17C170.6,173.5 164.53,173.6 158.68,173.43C135.34,172.74 114.13,166.55 101.84,156.27C100.99,157.17 100.12,158.05 99.24,158.92C110.87,169.48 131.24,175.54 158.6,176.29C190.02,177.15 227.58,170.92 266.06,158.68L258.62,172.06L259.97,176.24L271.21,156.03L251,144.77L250.68,148.26Z" style="fill:rgb(245,238,208);fill-rule:nonzero;"/>
        </g>
    </g>
</svg>
